<?xml version="1.0" encoding="UTF-8"?>
<svg id="_图层_1" data-name="图层 1" xmlns="http://www.w3.org/2000/svg" viewBox="0 0 73.185 85">
  <defs>
    <style>
      .cls-1 {
        fill: #c1272d;
      }

      .cls-2 {
        fill: #1a1a1a;
      }
    </style>
  </defs>
  <path class="cls-1" d="M54.6384,62.4394c-16.9407,12.5565-26.5943,8.4801-26.5943,8.4801-1.0663,2.5711-1.665,6.0866-1.6557,9.9479,4.0036,2.6272,7.3337,4.1326,8.9614,4.1326,5.9867,0,35.3405-20.5037,35.3405-42.3257v-17.0069c-.5987,9.2374-3.4143,27.4224-16.0519,36.772Z"/>
  <path class="cls-1" d="M0,7.8471v19.6342c7.0157-6.5634,18.3063-14.0992,36.1169-19.6342H0Z"/>
  <path class="cls-1" d="M49.8022,7.8471C22.4409,13.7841,7.6424,24.452,0,32.474v10.2004c0,14.3423,12.675,28.1143,23.0677,35.8651.5145-2.4776,1.1225-4.8431,1.8147-7.1244-.6081-.5984-1.6931-1.739-2.9279-3.2817-.0187.0561-.0468.1122-.0749.1683,0,0-12.4318-10.9577-4.4994-24.954.1029-.1776.2151-.3646.3274-.5517,8.1663-13.5663,23.947-11.902,39.1571-21.1675,7.2308-4.413,11.5058-10.0415,13.7414-13.7813h-20.8039Z"/>
  <path class="cls-2" d="M73.185,0c-.289,3.4921-1.1774,5.4294-2.5758,7.8467-2.24,3.7385-6.5159,9.3718-13.7417,13.7773-15.2123,9.2741-30.99,7.6045-39.1636,21.1694-.1105.1869-.221.3738-.323.5565-5.3938,9.6862.4208,19.555,4.5777,24.7804,1.2326,1.5464,2.3165,2.6849,2.9243,3.2882-.6971,2.2771-1.3049,4.6477-1.8107,7.1244C1.6755,60.513,5.2629,41.6165,15.8932,32.7588c12.3433-10.2894,23.2457-8.9979,37.3317-15.175,4.1697-1.9075,9.6698-5.7182,13.9117-9.7371,2.8435-2.6934,5.1218-5.4803,6.0484-7.8467Z"/>
  <path class="cls-1" d="M68.4154,26.1512s-14.0512,21.7926-28.1024,24.6983c12.0992-1.6414,22.5308-1.8908,27.1333-15.497l.969-9.2013Z"/>
</svg>