<?xml version="1.0" encoding="UTF-8"?>
<svg id="_图层_1" data-name="图层 1" xmlns="http://www.w3.org/2000/svg" viewBox="0 0 622.89 722.67">
  <defs>
    <style>
      .cls-1 {
        fill: #b92d2f;
      }

      .cls-1, .cls-2, .cls-3, .cls-4 {
        stroke-width: 0px;
      }

      .cls-2 {
        fill: #353535;
      }

      .cls-3 {
        fill: #6e1419;
      }

      .cls-4 {
        fill: #323333;
      }
    </style>
  </defs>
  <path class="cls-1" d="M0,65.39h308.6S117.34,123.8,1.03,233.91L0,65.39Z"/>
  <path class="cls-1" d="M1.03,275.26S140.08,121.73,424.39,66.42h148.87s-82.69,101.68-292.32,140.6c-18.74,3.48-36.98,9.3-54.28,17.32-72.86,33.78-223.71,128.31-125.09,325.14,0,0,64.87,89.43,95.24,118.5,0,0-181.05-131.43-194.23-295.03l-1.55-97.7Z"/>
  <path class="cls-3" d="M622.89,0s-65.93,155.85-343.5,204.7c0,0-249.66,49.63-207.79,272.94,0,0-2.33,69.01,125.22,190.35l19-60.87s-155.08-139.57-44.2-270.61c0,0,48.07-60.48,172.91-93.05C469.36,210.9,611.26,117.08,622.89,0Z"/>
  <path class="cls-2" d="M582.57,220.21s-123.28,193.07-231.84,210.13c0,0,248.9,13.18,231.84-210.13Z"/>
  <path class="cls-4" d="M241.4,603.24s112.43,31.02,247.35-92.27c0,0,104.68-87.62,114.76-293.87l-1.55,161.28s-3.88,118.63-131.81,233.39c-127.94,114.76-162.05,110.88-162.05,110.88,0,0-40.32-4.65-79.86-34.12,0,0,.52-54.02,13.18-85.29Z"/>
</svg>