<?xml version="1.0" encoding="UTF-8"?>
<svg id="_图层_1" data-name="图层 1" xmlns="http://www.w3.org/2000/svg" viewBox="0 0 73.2 85">
  <defs>
    <style>
      .cls-1 {
        fill: #c1272d;
      }

      .cls-2 {
        fill: #333;
      }

      .cls-3 {
        fill: #720d15;
      }
    </style>
  </defs>
  <path class="cls-2" d="M35.3571,85c5.9879,0,35.3477-20.5037,35.3477-42.3257v-17.0069c-.5988,9.2374-3.415,27.4224-16.0552,36.772-16.9441,12.5565-26.5997,8.4801-26.5997,8.4801-1.0666,2.5711-1.6654,6.0866-1.656,9.9479,4.0044,2.6272,7.3352,4.1326,8.9633,4.1326"/>
  <path class="cls-1" d="M0,7.8471v19.6342c7.0172-6.5634,18.3101-14.0992,36.1243-19.6342H0Z"/>
  <path class="cls-1" d="M49.8124,7.8471C22.4455,13.7841,7.644,24.452,0,32.474v10.2004c0,14.3423,12.6776,28.1143,23.0724,35.8651.5146-2.4776,1.1227-4.8431,1.8151-7.1244-.6082-.5984-1.6935-1.739-2.9285-3.2817-.0187.0561-.0468.1122-.0749.1683,0,0-12.4344-10.9577-4.5003-24.954.1029-.1776.2152-.3646.3274-.5517,8.168-13.5663,23.9519-11.902,39.1651-21.1675,7.2323-4.413,11.5081-10.0415,13.7442-13.7813h-20.8082Z"/>
  <path class="cls-3" d="M73.2,0c-.2891,3.4921-1.1776,5.4294-2.5763,7.8467-2.2405,3.7385-6.5173,9.3718-13.7445,13.7773-15.2155,9.2741-30.9963,7.6045-39.1716,21.1694-.1105.1869-.2211.3738-.3231.5565-5.3949,9.6862.4209,19.555,4.5787,24.7804,1.2329,1.5464,2.317,2.6849,2.9249,3.2882-.6972,2.2771-1.3052,4.6477-1.811,7.1244C1.6758,60.513,5.2639,41.6165,15.8965,32.7588c12.3458-10.2894,23.2505-8.9979,37.3393-15.175,4.1706-1.9075,9.6717-5.7182,13.9146-9.7371,2.8441-2.6934,5.1228-5.4803,6.0496-7.8467Z"/>
  <path class="cls-2" d="M68.4294,26.1512s-14.0541,21.7926-28.1081,24.6983c12.1017-1.6414,22.5354-1.8908,27.1389-15.497l.9692-9.2013Z"/>
</svg>